<svg width="17" height="17" viewBox="0 0 17 17" fill="none" xmlns="http://www.w3.org/2000/svg">
<g clip-path="url(#clip0_1047_3374)">
<path d="M8.50008 9.83342V11.1667C7.43922 11.1667 6.4218 11.5882 5.67165 12.3383C4.92151 13.0885 4.50008 14.1059 4.50008 15.1667H3.16675C3.16675 13.7523 3.72865 12.3957 4.72885 11.3955C5.72904 10.3953 7.08559 9.83342 8.50008 9.83342ZM8.50008 9.16675C6.29008 9.16675 4.50008 7.37675 4.50008 5.16675C4.50008 2.95675 6.29008 1.16675 8.50008 1.16675C10.7101 1.16675 12.5001 2.95675 12.5001 5.16675C12.5001 7.37675 10.7101 9.16675 8.50008 9.16675ZM8.50008 7.83342C9.97341 7.83342 11.1667 6.64008 11.1667 5.16675C11.1667 3.69341 9.97341 2.50008 8.50008 2.50008C7.02675 2.50008 5.83341 3.69341 5.83341 5.16675C5.83341 6.64008 7.02675 7.83342 8.50008 7.83342ZM14.5001 11.8334H15.1667V15.1667H9.83342V11.8334H10.5001V11.1667C10.5001 10.6363 10.7108 10.1276 11.0859 9.75253C11.4609 9.37746 11.9696 9.16675 12.5001 9.16675C13.0305 9.16675 13.5392 9.37746 13.9143 9.75253C14.2894 10.1276 14.5001 10.6363 14.5001 11.1667V11.8334ZM13.1667 11.8334V11.1667C13.1667 10.9899 13.0965 10.8204 12.9715 10.6953C12.8465 10.5703 12.6769 10.5001 12.5001 10.5001C12.3233 10.5001 12.1537 10.5703 12.0287 10.6953C11.9037 10.8204 11.8334 10.9899 11.8334 11.1667V11.8334H13.1667Z" fill="#757575"/>
</g>
<defs>
<clipPath id="clip0_1047_3374">
<rect width="16" height="16" fill="white" transform="translate(0.5 0.5)"/>
</clipPath>
</defs>
</svg>
