<svg width="17" height="17" viewBox="0 0 17 17" fill="none" xmlns="http://www.w3.org/2000/svg">
<path d="M3.16659 10.4999H4.49992V13.8333H12.4999V3.16659H4.49992V6.49992H3.16659V2.49992C3.16659 2.32311 3.23682 2.15354 3.36185 2.02851C3.48687 1.90349 3.65644 1.83325 3.83325 1.83325H13.1666C13.3434 1.83325 13.513 1.90349 13.638 2.02851C13.763 2.15354 13.8333 2.32311 13.8333 2.49992V14.4999C13.8333 14.6767 13.763 14.8463 13.638 14.9713C13.513 15.0963 13.3434 15.1666 13.1666 15.1666H3.83325C3.65644 15.1666 3.48687 15.0963 3.36185 14.9713C3.23682 14.8463 3.16659 14.6767 3.16659 14.4999V10.4999ZM7.16659 7.83325V5.83325L10.4999 8.49992L7.16659 11.1666V9.16658H1.83325V7.83325H7.16659Z" fill="#757575"/>
</svg>
