<svg width="19" height="20" viewBox="0 0 19 20" fill="none" xmlns="http://www.w3.org/2000/svg">
<g clip-path="url(#clip0_1084_1734)">
<path d="M3.16668 6.8335H15.8333V17.1252C15.8333 17.3351 15.7499 17.5365 15.6015 17.685C15.453 17.8334 15.2516 17.9168 15.0417 17.9168H3.95834C3.74838 17.9168 3.54702 17.8334 3.39855 17.685C3.25008 17.5365 3.16668 17.3351 3.16668 17.1252V6.8335ZM4.75001 8.41683V16.3335H14.25V8.41683H4.75001ZM7.12501 10.0002H8.70834V14.7502H7.12501V10.0002ZM10.2917 10.0002H11.875V14.7502H10.2917V10.0002ZM5.54168 4.4585V2.87516C5.54168 2.6652 5.62508 2.46384 5.77355 2.31537C5.92202 2.1669 6.12338 2.0835 6.33334 2.0835H12.6667C12.8766 2.0835 13.078 2.1669 13.2265 2.31537C13.3749 2.46384 13.4583 2.6652 13.4583 2.87516V4.4585H17.4167V6.04183H1.58334V4.4585H5.54168ZM7.12501 3.66683V4.4585H11.875V3.66683H7.12501Z" fill="#757575"/>
</g>
<defs>
<clipPath id="clip0_1084_1734">
<rect width="19" height="19" fill="white" transform="translate(0 0.5)"/>
</clipPath>
</defs>
</svg>
